<svg width="68" height="69" viewBox="0 0 68 69" fill="none" xmlns="http://www.w3.org/2000/svg">
<path fill-rule="evenodd" clip-rule="evenodd" d="M12.9135 55.1866C10.0806 55.1248 7.00913 53.7337 4.77531 49.972C4.13622 48.8958 2.7513 48.5448 1.682 49.1881C0.612707 49.8313 0.263958 51.2251 0.903049 52.3013C3.92318 57.387 8.41093 59.6297 12.8157 59.7258C17.104 59.8194 21.2502 57.8711 23.6951 54.7555C24.4672 53.7716 24.3006 52.3441 23.323 51.567C22.3454 50.7899 20.927 50.9576 20.1549 51.9415C18.6325 53.8816 15.8627 55.251 12.9135 55.1866Z" fill="#6767E6"/>
<path fill-rule="evenodd" clip-rule="evenodd" d="M30.181 42.8397C31.4267 42.8397 32.4366 43.8561 32.4366 45.1099V45.1435C32.4366 48.8294 32.4366 54.2132 30.2653 58.8604C29.1493 61.249 27.4563 63.4635 24.9229 65.1723C22.3999 66.8741 19.1609 67.9955 15.0625 68.3895C13.8225 68.5088 12.7211 67.5937 12.6027 66.3456C12.4842 65.0975 13.3934 63.9891 14.6335 63.8699C18.148 63.5319 20.6321 62.6009 22.4114 61.4007C24.1804 60.2076 25.369 58.6705 26.183 56.9283C27.8651 53.3281 27.9254 48.9526 27.9254 45.1099C27.9254 43.8561 28.9353 42.8397 30.181 42.8397Z" fill="#6767E6"/>
<path fill-rule="evenodd" clip-rule="evenodd" d="M6.3443 46.8606C8.04701 50.0458 11.9723 51.6468 16.0105 50.3342C18.0306 49.6776 20.3734 48.3849 22.1718 45.6764C23.9456 43.005 25.0378 39.1845 25.0378 33.7499C25.0378 32.4961 24.0279 31.4797 22.7822 31.4797C21.5365 31.4797 20.5266 32.4961 20.5266 33.7499C20.5266 38.6043 19.5487 41.4555 18.4211 43.1537C17.3182 44.8148 15.9286 45.5897 14.6241 46.0137C12.4649 46.7155 10.8944 45.7896 10.317 44.7094C9.831 43.8004 9.67616 41.9743 12.3282 40.009C17.0931 36.478 17.5503 30.9531 15.2078 27.2224C14.0473 25.3744 12.1778 23.9458 9.84653 23.5332C7.49153 23.1164 4.95363 23.7844 2.54323 25.5815C1.54223 26.3278 1.33188 27.7495 2.07339 28.7569C2.8149 29.7644 4.22748 29.9761 5.22847 29.2298C6.83829 28.0296 8.1478 27.8425 9.06524 28.0049C10.0064 28.1714 10.8343 28.7562 11.3943 29.648C12.4925 31.3969 12.4819 34.2569 9.65348 36.3529C5.64039 39.3267 4.5501 43.5043 6.3443 46.8606Z" fill="#6767E6"/>
<path fill-rule="evenodd" clip-rule="evenodd" d="M55.4205 55.1866C58.2533 55.1248 61.3249 53.7337 63.5587 49.972C64.1978 48.8958 65.5827 48.5448 66.652 49.1881C67.7213 49.8313 68.07 51.2251 67.4309 52.3013C64.4108 57.387 59.9231 59.6297 55.5183 59.7258C51.23 59.8194 47.0838 57.8711 44.6389 54.7555C43.8668 53.7716 44.0334 52.3441 45.011 51.567C45.9886 50.7899 47.407 50.9576 48.1791 51.9415C49.7015 53.8816 52.4713 55.251 55.4205 55.1866Z" fill="#6767E6"/>
<path fill-rule="evenodd" clip-rule="evenodd" d="M38.153 42.8397C36.9073 42.8397 35.8974 43.8561 35.8974 45.1099V45.1435C35.8974 48.8294 35.8974 54.2132 38.0687 58.8604C39.1847 61.249 40.8777 63.4635 43.4111 65.1723C45.9341 66.8741 49.1731 67.9955 53.2714 68.3895C54.5115 68.5088 55.6128 67.5937 55.7313 66.3456C55.8498 65.0975 54.9406 63.9891 53.7005 63.8699C50.186 63.5319 47.7019 62.6009 45.9226 61.4007C44.1536 60.2076 42.965 58.6705 42.151 56.9283C40.4688 53.3281 40.4086 48.9526 40.4086 45.1099C40.4086 43.8561 39.3987 42.8397 38.153 42.8397Z" fill="#6767E6"/>
<path fill-rule="evenodd" clip-rule="evenodd" d="M61.9894 46.8606C60.2867 50.0458 56.3615 51.6468 52.3232 50.3342C50.3032 49.6776 47.9603 48.3849 46.1619 45.6764C44.3882 43.005 43.2959 39.1845 43.2959 33.7499C43.2959 32.4961 44.3058 31.4797 45.5515 31.4797C46.7972 31.4797 47.8071 32.4961 47.8071 33.7499C47.8071 38.6043 48.7851 41.4555 49.9127 43.1537C51.0156 44.8148 52.4052 45.5897 53.7097 46.0137C55.8688 46.7155 57.4393 45.7896 58.0168 44.7094C58.5027 43.8004 58.6576 41.9743 56.0056 40.009C51.2406 36.478 50.7834 30.9531 53.126 27.2224C54.2864 25.3744 56.156 23.9458 58.4872 23.5332C60.8422 23.1164 63.3801 23.7844 65.7905 25.5815C66.7915 26.3278 67.0019 27.7495 66.2604 28.7569C65.5188 29.7644 64.1063 29.9761 63.1053 29.2298C61.4954 28.0296 60.1859 27.8425 59.2685 28.0049C58.3273 28.1714 57.4994 28.7562 56.9394 29.648C55.8413 31.3969 55.8518 34.2569 58.6803 36.3529C62.6934 39.3267 63.7836 43.5043 61.9894 46.8606Z" fill="#6767E6"/>
<path fill-rule="evenodd" clip-rule="evenodd" d="M34.3072 5.34027C28.3676 5.34027 23.8032 9.63964 23.8032 15.1818C23.8032 16.4356 22.7933 17.452 21.5476 17.452C20.3019 17.452 19.292 16.4356 19.292 15.1818C19.292 6.81735 26.2008 0.800003 34.3072 0.800003C42.4239 0.800003 49.2791 6.82701 49.2791 15.1818C49.2791 16.4356 48.2692 17.452 47.0235 17.452C45.7778 17.452 44.7679 16.4356 44.7679 15.1818C44.7679 9.62998 40.2365 5.34027 34.3072 5.34027Z" fill="#6767E6"/>
<ellipse cx="22.6606" cy="24.0907" rx="3.13276" ry="3.15297" fill="#6767E6"/>
<ellipse rx="3.13276" ry="3.15297" transform="matrix(-1 0 0 1 45.6734 24.0907)" fill="#6767E6"/>
</svg>
